<svg xmlns="http://www.w3.org/2000/svg" xmlns:xlink="http://www.w3.org/1999/xlink" viewBox="0 0 64 64"><defs><linearGradient id="a" x1="19.555" x2="53.902" y1="12.279" y2="46.627" gradientUnits="userSpaceOnUse"><stop offset="0" stop-color="#00f260"/><stop offset="1" stop-color="#0575e6"/></linearGradient><linearGradient id="b" x1="1.759" x2="36.107" y1="30.074" y2="64.422" xlink:href="#a"/><linearGradient id="c" x1="21.917" x2="56.265" y1="9.917" y2="44.265" xlink:href="#a"/><linearGradient id="d" x1="24.98" x2="59.328" y1="6.853" y2="41.201" xlink:href="#a"/><linearGradient id="e" x1="20.002" x2="54.349" y1="11.832" y2="46.18" xlink:href="#a"/><linearGradient id="f" x1="21.86" x2="56.208" y1="9.973" y2="44.321" xlink:href="#a"/><linearGradient id="g" x1="20.417" x2="54.765" y1="11.417" y2="45.765" xlink:href="#a"/></defs><path fill="url(#a)" d="M59.596 26.925a60.869 60.869 0 0 0-.859-6.786 1.735 1.735 0 0 0-2.485-1.233 7.681 7.681 0 0 0-3.94 9.473 1.655 1.655 0 0 1-.027 1.157l-.978 2.36a3.642 3.642 0 0 0-2.063.967l-4.022 3.814a.804.804 0 0 1-.519.206c-5.569.272-8.592 5.203-8.592 8.195v5.9h-.85a1 1 0 0 0-1 1v6.348a1 1 0 0 0 1 1h15.074a1 1 0 0 0 1-1v-6.348a1 1 0 0 0-1-1h-1.19l.002-.033a1.608 1.608 0 0 1 .481-1.104l8.121-7.968a5.14 5.14 0 0 0 1.49-3 60.826 60.826 0 0 0 .357-11.948Zm-10.261 30.4H36.261v-4.347h13.074Zm7.92-18.708a3.13 3.13 0 0 1-.906 1.828l-8.122 7.97a3.6 3.6 0 0 0-1.08 2.47l-.003.093H38.11v-5.9c0-2.171 2.402-5.988 6.689-6.197a2.795 2.795 0 0 0 1.798-.754l4.023-3.813a1.66 1.66 0 0 1 1.815-.31c.72.306.503 1.414-.015 2l-4.993 5.636a1 1 0 0 0 1.498 1.326l4.992-5.635c1.348-1.524 1.431-4.114-.582-5.106l.797-1.924a3.661 3.661 0 0 0 .077-2.553 5.658 5.658 0 0 1 2.626-6.886 58.474 58.474 0 0 1 .764 6.202 58.703 58.703 0 0 1-.345 11.553Z"/><path fill="url(#b)" d="M28.74 50.978h-.851v-5.901c0-3.025-3.052-7.924-8.593-8.194a.8.8 0 0 1-.518-.207l-4.006-3.797a3.683 3.683 0 0 0-2.076-.976l-.981-2.367a1.652 1.652 0 0 1-.027-1.156 7.682 7.682 0 0 0-3.939-9.473 1.734 1.734 0 0 0-2.486 1.232 60.443 60.443 0 0 0-.502 18.734 5.14 5.14 0 0 0 1.49 3l8.12 7.967a1.61 1.61 0 0 1 .482 1.106l.001.032h-1.189a1 1 0 0 0-1 1v6.348a1 1 0 0 0 1 1h15.074a1 1 0 0 0 1-1v-6.348a1 1 0 0 0-1-1Zm-11.886-.092a3.602 3.602 0 0 0-1.082-2.472l-8.12-7.97a3.13 3.13 0 0 1-.907-1.827 58.515 58.515 0 0 1 .42-17.755 5.66 5.66 0 0 1 2.625 6.887 3.659 3.659 0 0 0 .077 2.552l.796 1.922c-1.966.954-1.968 3.54-.57 5.118l4.982 5.625a1 1 0 0 0 1.496-1.326l-4.981-5.625c-.52-.586-.76-1.698-.027-2.012a1.688 1.688 0 0 1 1.833.328l4.005 3.795a2.796 2.796 0 0 0 1.798.755c4.307.21 6.69 4.066 6.69 6.196v5.901h-9.033Zm10.885 6.44H14.665v-4.348h13.074Z"/><path fill="url(#c)" d="M32 36a16.008 16.008 0 0 1-14.484-22.808 1 1 0 0 1 1.81.852 14.014 14.014 0 1 0 3.42-4.55 1 1 0 0 1-1.322-1.5A16 16 0 1 1 32 36Z"/><path fill="url(#d)" d="M26.034 8.451a13.032 13.032 0 0 1 1.455-.644 1 1 0 0 1 .698 1.875 11.153 11.153 0 0 0-1.233.545 1 1 0 0 1-.92-1.776Z"/><path fill="url(#e)" d="M19.376 16.89a12.951 12.951 0 0 1 4.077-6.68 1 1 0 0 1 1.317 1.507 10.962 10.962 0 0 0-3.453 5.652 1 1 0 0 1-1.941-.478Z"/><path fill="url(#f)" d="M39.49 11.384c-5.179 2.437-6.86-.156-12.406 3.366-2.917 1.853-4.144 5.378-3.646 10.477.014.14.022.205.026.33q-.445.861-.854 1.792a1 1 0 0 0 1.832.802q.378-.86.788-1.653c.142.004.287.008.456.008a16.554 16.554 0 0 0 12.175-5.06 14.747 14.747 0 0 0 3.609-8.714 1.387 1.387 0 0 0-1.98-1.348Zm-3.101 8.709a14.519 14.519 0 0 1-9.975 4.383 15.73 15.73 0 0 1 5.982-5.678 1 1 0 0 0-.907-1.783 17.164 17.164 0 0 0-6.13 5.437c.126-2.878 1.053-4.906 2.797-6.014 4.682-2.973 6.176-.867 11.198-2.823a12.37 12.37 0 0 1-2.965 6.478Z"/><circle cx="20" cy="11" r="1" fill="url(#g)"/></svg>